HIERARCHY
ROOT Hips
{
  OFFSET 613.057 91.7616 435.46
  CHANNELS 6 Xposition Yposition Zposition Zrotation Xrotation Yrotation
  JOINT RightUpLeg
  {
    OFFSET -9.26292 -1.59724 0.00830305
    CHANNELS 3 Zrotation Xrotation Yrotation
    JOINT RightLeg
    {
      OFFSET -0.0569096 -41.8785 0.00263593
      CHANNELS 3 Zrotation Xrotation Yrotation
      JOINT RightFoot
      {
        OFFSET -0.44833 -41.2852 1.36433
        CHANNELS 3 Zrotation Xrotation Yrotation
        End Site
        {
          OFFSET 0 -7.69 17.5
        }
      }
    }
  }
  JOINT LeftUpLeg
  {
    OFFSET 9.23006 -1.59197 0.0149286
    CHANNELS 3 Zrotation Xrotation Yrotation
    JOINT LeftLeg
    {
      OFFSET -0.042098 -41.8722 0.0100426
      CHANNELS 3 Zrotation Xrotation Yrotation
      JOINT LeftFoot
      {
        OFFSET -0.696698 -41.7601 0.971093
        CHANNELS 3 Zrotation Xrotation Yrotation
        End Site
        {
          OFFSET 0 -7.69 17.5
        }
      }
    }
  }
  JOINT Spine
  {
    OFFSET 0.0179698 14.302 -0.0285634
    CHANNELS 3 Zrotation Xrotation Yrotation
    JOINT Spine1
    {
      OFFSET 0.0131699 9.71531 -0.00819964
      CHANNELS 3 Zrotation Xrotation Yrotation
      JOINT Spine2
      {
        OFFSET 0.0139181 10.1266 0.0364806
        CHANNELS 3 Zrotation Xrotation Yrotation
        JOINT Spine3
        {
          OFFSET 0.00675107 9.72482 0.0124292
          CHANNELS 3 Zrotation Xrotation Yrotation
          JOINT Neck
          {
            OFFSET 0.0172893 10.385 0.0690337
            CHANNELS 3 Zrotation Xrotation Yrotation
            JOINT Head
            {
              OFFSET 0.0673903 9.45916 0.0366108
              CHANNELS 3 Zrotation Xrotation Yrotation
              End Site
              {
                OFFSET 0 15.95 0
              }
            }
          }
          JOINT RightShoulder
          {
            OFFSET -3.19083 6.91981 0.0279818
            CHANNELS 3 Zrotation Xrotation Yrotation
            JOINT RightArm
            {
              OFFSET -12.7912 -0.0312545 0.0221894
              CHANNELS 3 Zrotation Xrotation Yrotation
              JOINT RightForeArm
              {
                OFFSET -26.4792 -0.0463709 -0.029191
                CHANNELS 3 Zrotation Xrotation Yrotation
                JOINT RightHand
                {
                  OFFSET -26.0115 -0.0295049 0.0421394
                  CHANNELS 3 Zrotation Xrotation Yrotation
                  JOINT RightHandThumb1
                  {
                    OFFSET -2.48905 0.190105 3.12053
                    CHANNELS 3 Zrotation Xrotation Yrotation
                    JOINT RightHandThumb2
                    {
                      OFFSET -3.68274 0 0
                      CHANNELS 3 Zrotation Xrotation Yrotation
                      JOINT RightHandThumb3
                      {
                        OFFSET -2.55832 0 0
                        CHANNELS 3 Zrotation Xrotation Yrotation
                        End Site
                        {
                          OFFSET -2.194 0 0
                        }
                      }
                    }
                  }
                  JOINT RightInHandIndex
                  {
                    OFFSET -3.22368 0.508421 1.97842
                    CHANNELS 3 Zrotation Xrotation Yrotation
                    JOINT RightHandIndex1
                    {
                      OFFSET -5.21684 -0.091368 0.999158
                      CHANNELS 3 Zrotation Xrotation Yrotation
                      JOINT RightHandIndex2
                      {
                        OFFSET -3.61937 0 0
                        CHANNELS 3 Zrotation Xrotation Yrotation
                        JOINT RightHandIndex3
                        {
                          OFFSET -2.0521 0 0
                          CHANNELS 3 Zrotation Xrotation Yrotation
                          End Site
                          {
                            OFFSET -1.805 0 0
                          }
                        }
                      }
                    }
                  }
                  JOINT RightInHandMiddle
                  {
                    OFFSET -3.38211 0.517263 0.756737
                    CHANNELS 3 Zrotation Xrotation Yrotation
                    JOINT RightHandMiddle1
                    {
                      OFFSET -5.17411 -0.084 0.313895
                      CHANNELS 3 Zrotation Xrotation Yrotation
                      JOINT RightHandMiddle2
                      {
                        OFFSET -3.94947 0 0
                        CHANNELS 3 Zrotation Xrotation Yrotation
                        JOINT RightHandMiddle3
                        {
                          OFFSET -2.47579 0 0
                          CHANNELS 3 Zrotation Xrotation Yrotation
                          End Site
                          {
                            OFFSET -1.975 0 0
                          }
                        }
                      }
                    }
                  }
                  JOINT RightInHandRing
                  {
                    OFFSET -3.36516 0.537895 -0.128947
                    CHANNELS 3 Zrotation Xrotation Yrotation
                    JOINT RightHandRing1
                    {
                      OFFSET -4.63474 -0.022105 -0.478947
                      CHANNELS 3 Zrotation Xrotation Yrotation
                      JOINT RightHandRing2
                      {
                        OFFSET -3.44238 0 0
                        CHANNELS 3 Zrotation Xrotation Yrotation
                        JOINT RightHandRing3
                        {
                          OFFSET -2.3881 0 0
                          CHANNELS 3 Zrotation Xrotation Yrotation
                          End Site
                          {
                            OFFSET -1.857 0 0
                          }
                        }
                      }
                    }
                  }
                  JOINT RightInHandPinky
                  {
                    OFFSET -3.16105 0.469368 -1.20179
                    CHANNELS 3 Zrotation Xrotation Yrotation
                    JOINT RightHandPinky1
                    {
                      OFFSET -4.14105 -0.022105 -1.09053
                      CHANNELS 3 Zrotation Xrotation Yrotation
                      JOINT RightHandPinky2
                      {
                        OFFSET -2.75653 0 0
                        CHANNELS 3 Zrotation Xrotation Yrotation
                        JOINT RightHandPinky3
                        {
                          OFFSET -1.74189 0 0
                          CHANNELS 3 Zrotation Xrotation Yrotation
                          End Site
                          {
                            OFFSET -1.645 0 0
                          }
                        }
                      }
                    }
                  }
                }
              }
            }
          }
          JOINT LeftShoulder
          {
            OFFSET 3.2121 6.89815 -0.0421478
            CHANNELS 3 Zrotation Xrotation Yrotation
            JOINT LeftArm
            {
              OFFSET 12.806 -0.014883 -0.0927143
              CHANNELS 3 Zrotation Xrotation Yrotation
              JOINT LeftForeArm
              {
                OFFSET 26.5458 0.0720959 -0.0481554
                CHANNELS 3 Zrotation Xrotation Yrotation
                JOINT LeftHand
                {
                  OFFSET 25.9982 0.145931 -0.0622226
                  CHANNELS 3 Zrotation Xrotation Yrotation
                  JOINT LeftHandThumb1
                  {
                    OFFSET 2.48905 0.190105 3.12053
                    CHANNELS 3 Zrotation Xrotation Yrotation
                    JOINT LeftHandThumb2
                    {
                      OFFSET 3.68274 0 0
                      CHANNELS 3 Zrotation Xrotation Yrotation
                      JOINT LeftHandThumb3
                      {
                        OFFSET 2.55832 0 0
                        CHANNELS 3 Zrotation Xrotation Yrotation
                        End Site
                        {
                          OFFSET 2.194 0 0
                        }
                      }
                    }
                  }
                  JOINT LeftInHandIndex
                  {
                    OFFSET 3.22368 0.508421 1.97842
                    CHANNELS 3 Zrotation Xrotation Yrotation
                    JOINT LeftHandIndex1
                    {
                      OFFSET 5.21684 -0.091368 0.999158
                      CHANNELS 3 Zrotation Xrotation Yrotation
                      JOINT LeftHandIndex2
                      {
                        OFFSET 3.61937 0 0
                        CHANNELS 3 Zrotation Xrotation Yrotation
                        JOINT LeftHandIndex3
                        {
                          OFFSET 2.0521 0 0
                          CHANNELS 3 Zrotation Xrotation Yrotation
                          End Site
                          {
                            OFFSET 1.805 0 0
                          }
                        }
                      }
                    }
                  }
                  JOINT LeftInHandMiddle
                  {
                    OFFSET 3.38211 0.517263 0.756737
                    CHANNELS 3 Zrotation Xrotation Yrotation
                    JOINT LeftHandMiddle1
                    {
                      OFFSET 5.17411 -0.084 0.313895
                      CHANNELS 3 Zrotation Xrotation Yrotation
                      JOINT LeftHandMiddle2
                      {
                        OFFSET 3.94947 0 0
                        CHANNELS 3 Zrotation Xrotation Yrotation
                        JOINT LeftHandMiddle3
                        {
                          OFFSET 2.47579 0 0
                          CHANNELS 3 Zrotation Xrotation Yrotation
                          End Site
                          {
                            OFFSET 1.975 0 0
                          }
                        }
                      }
                    }
                  }
                  JOINT LeftInHandRing
                  {
                    OFFSET 3.36516 0.537895 -0.128947
                    CHANNELS 3 Zrotation Xrotation Yrotation
                    JOINT LeftHandRing1
                    {
                      OFFSET 4.63474 -0.022105 -0.478947
                      CHANNELS 3 Zrotation Xrotation Yrotation
                      JOINT LeftHandRing2
                      {
                        OFFSET 3.44238 0 0
                        CHANNELS 3 Zrotation Xrotation Yrotation
                        JOINT LeftHandRing3
                        {
                          OFFSET 2.3881 0 0
                          CHANNELS 3 Zrotation Xrotation Yrotation
                          End Site
                          {
                            OFFSET 1.857 0 0
                          }
                        }
                      }
                    }
                  }
                  JOINT LeftInHandPinky
                  {
                    OFFSET 3.16105 0.469368 -1.20179
                    CHANNELS 3 Zrotation Xrotation Yrotation
                    JOINT LeftHandPinky1
                    {
                      OFFSET 4.14105 -0.022105 -1.09053
                      CHANNELS 3 Zrotation Xrotation Yrotation
                      JOINT LeftHandPinky2
                      {
                        OFFSET 2.75653 0 0
                        CHANNELS 3 Zrotation Xrotation Yrotation
                        JOINT LeftHandPinky3
                        {
                          OFFSET 1.74189 0 0
                          CHANNELS 3 Zrotation Xrotation Yrotation
                          End Site
                          {
                            OFFSET 1.645 0 0
                          }
                        }
                      }
                    }
                  }
                }
              }
            }
          }
        }
      }
    }
  }
}
MOTION
Frames:	5
Frame Time:	0.00833333
614.76 86.5833 411.787 20.7242 0.0921068 -124.208 32.8766 -36.4956 47.0063 -3.05774 22.8255 -19.2789 8.11251 8.66902 57.1729 33.0198 -18.7302 13.1508 -22.8969 49.2475 24.2587 -9.29662 -15.9907 43.3204 -7.37655 5.7894 -18.3558 -2.01856 0.72806 -4.83247 -3.29096 0.857152 -7.75885 -0.531146 -0.58838 2.73494 0.869256 -8.43725 44.3651 -8.09198 3.30711 25.3836 5.69314 -0.912985 -21.2487 70.6326 -58.0879 47.114 27.2682 -18.356 135.178 21.9328 -16.2399 14.8798 28.184 10.7294 19.1592 1.30538e-14 1.90833e-14 -10 3.16198e-15 -9.54166e-15 -10 -1.59028e-15 0 9.54166e-15 19.9818 0.871897 2.3964 24 -9.54166e-15 -5.46658e-15 20 -9.54166e-15 -1.59028e-15 -1.59028e-15 0 9.54166e-15 20 -3.18055e-15 6.36111e-15 24 6.36111e-15 5.1684e-15 20 -9.54166e-15 -0 -1.59028e-15 0 9.54166e-15 19.9748 -1.02565 -2.81938 24 -3.18055e-15 3.97569e-16 20 -3.18055e-15 -4.77083e-15 -1.59028e-15 0 9.54166e-15 19.7815 -3.00948 -8.30515 24 0 7.15625e-15 20 -6.36111e-15 -1.59028e-15 11.7718 -14.4236 -41.2165 4.86627 5.97984 -119.802 28.5111 -27.492 -42.7317 -1.32751 14.9779 -20.4864 -28.184 10.7294 -19.1592 7.0877e-15 -1.27222e-14 10 -5.3376e-15 -6.36111e-15 10 1.59028e-15 3.18055e-15 -3.18055e-15 -19.9818 0.871897 -2.3964 -24 3.18055e-15 -7.95139e-16 -20 0 1.59028e-15 1.59028e-15 3.18055e-15 -3.18055e-15 -20 0 9.54166e-15 -24 -9.54166e-15 6.75868e-15 -20 0 7.95139e-16 1.59028e-15 3.18055e-15 -3.18055e-15 -19.9748 -1.02565 2.81938 -24 0 9.93923e-16 -20 -6.36111e-15 -0 1.59028e-15 3.18055e-15 -3.18055e-15 -19.7815 -3.00948 8.30515 -24 -3.18055e-15 -3.97569e-16 -20 -3.18055e-15 1.59028e-15 
614.786 86.5909 411.896 20.8461 0.112185 -124.224 33.007 -36.6326 47.0439 -3.05424 22.9404 -19.1863 8.1075 8.63016 57.1243 32.9652 -19.0057 13.1379 -22.735 49.4217 24.1194 -9.07944 -15.7537 43.4435 -7.34879 5.76301 -18.3741 -2.0108 0.726349 -4.83276 -3.27881 0.851256 -7.76355 -0.529746 -0.587812 2.73507 0.869007 -8.4136 44.3804 -8.07774 3.31855 25.3975 5.65779 -0.953033 -21.2367 70.5512 -58.0387 46.8973 27.116 -18.372 135.046 21.8734 -16.0913 15.0476 28.184 10.7294 19.1592 -1.05399e-15 3.18055e-15 -10 6.2803e-15 1.27222e-14 -10 1.76556e-31 3.18055e-15 -3.18055e-15 19.9818 0.871897 2.3964 24 -3.18055e-15 -7.95139e-16 20 0 1.59028e-15 1.76556e-31 3.18055e-15 -3.18055e-15 20 1.27222e-14 3.18055e-15 24 3.18055e-15 4.17448e-15 20 -3.18055e-15 3.18055e-15 1.76556e-31 3.18055e-15 -3.18055e-15 19.9748 -1.02565 -2.81938 24 6.36111e-15 1.98785e-15 20 3.18055e-15 1.59028e-15 1.76556e-31 3.18055e-15 -3.18055e-15 19.7815 -3.00948 -8.30515 24 -6.36111e-15 1.59028e-15 20 -9.54166e-15 -0 11.8309 -14.3888 -41.2112 4.86545 5.91312 -119.903 28.5356 -27.3342 -42.4639 -1.72748 14.8657 -20.447 -28.184 10.7294 -19.1592 -5.60818e-16 3.18055e-15 10 2.10798e-15 6.36111e-15 10 -3.18055e-15 6.36111e-15 -9.54166e-15 -19.9818 0.871897 -2.3964 -24 -3.18055e-15 7.95139e-15 -20 -3.18055e-15 2.38542e-15 -3.18055e-15 6.36111e-15 -9.54166e-15 -20 9.54166e-15 -7.95139e-15 -24 -6.36111e-15 -1.19271e-15 -20 0 1.59028e-15 -3.18055e-15 6.36111e-15 -9.54166e-15 -19.9748 -1.02565 2.81938 -24 6.36111e-15 -2.78299e-15 -20 3.18055e-15 3.18055e-15 -3.18055e-15 6.36111e-15 -9.54166e-15 -19.7815 -3.00948 8.30515 -24 9.54166e-15 -1.59028e-15 -20 6.36111e-15 1.59028e-15 
614.813 86.6027 412.017 20.994 0.110946 -124.226 33.1446 -36.8191 47.1067 -3.03496 23.0947 -19.0758 8.09848 8.55935 57.0558 32.8855 -19.3286 13.1527 -22.5313 49.6313 23.9225 -8.83754 -15.5796 43.6 -7.31952 5.73087 -18.3866 -2.00237 0.724608 -4.83288 -3.26576 0.844 -7.76574 -0.528701 -0.587317 2.7352 0.876559 -8.42812 44.3823 -8.05428 3.26321 25.3827 5.72009 -0.995829 -21.2305 70.5475 -58.0364 46.8875 27.1097 -18.372 135.04 21.8798 -15.9959 15.0873 28.184 10.7294 19.1592 -1.05399e-15 3.18055e-15 -10 -4.28361e-15 3.18055e-15 -10 3.18055e-15 -3.18055e-15 -3.18055e-15 19.9818 0.871897 2.3964 24 -9.54166e-15 1.98785e-16 20 3.18055e-15 -3.18055e-15 3.18055e-15 -3.18055e-15 -3.18055e-15 20 0 -4.77083e-15 24 9.54166e-15 3.57812e-15 20 3.18055e-15 -1.59028e-15 3.18055e-15 -3.18055e-15 -3.18055e-15 19.9748 -1.02565 -2.81938 24 -1.59028e-14 -7.15625e-15 20 -9.54166e-15 -6.36111e-15 3.18055e-15 -3.18055e-15 -3.18055e-15 19.7815 -3.00948 -8.30515 24 -3.18055e-15 7.95139e-16 20 -3.18055e-15 -3.18055e-15 11.8977 -14.3587 -41.2233 4.72828 5.87141 -120.168 28.5706 -26.9343 -42.0402 -2.11783 14.7626 -20.3866 -28.184 10.7294 -19.1592 -2.10798e-15 -6.36111e-15 10 1.05399e-15 3.18055e-15 10 -1.27222e-14 3.18055e-15 -3.18055e-15 -19.9818 0.871897 -2.3964 -24 1.27222e-14 -2.38542e-15 -20 -3.18055e-15 -5.56597e-15 -1.27222e-14 3.18055e-15 -3.18055e-15 -20 -9.54166e-15 -4.77083e-15 -24 0 -5.96354e-15 -20 3.18055e-15 -2.38542e-15 -1.27222e-14 3.18055e-15 -3.18055e-15 -19.9748 -1.02565 2.81938 -24 6.36111e-15 -8.54774e-15 -20 -6.36111e-15 -4.77083e-15 -1.27222e-14 3.18055e-15 -3.18055e-15 -19.7815 -3.00948 8.30515 -24 0 -3.57812e-15 -20 -3.18055e-15 3.18055e-15 
614.847 86.6199 412.145 21.1416 0.10723 -124.208 33.2609 -37.0205 47.1872 -3.0009 23.277 -19.0064 8.09646 8.47623 56.98 32.7934 -19.6791 13.1938 -22.265 49.8437 23.6332 -8.54649 -15.3838 43.7603 -7.28873 5.70627 -18.402 -1.99409 0.721025 -4.83294 -3.25239 0.839252 -7.76961 -0.528003 -0.586883 2.73532 0.88355 -8.4478 44.3754 -8.03279 3.20227 25.3603 5.78818 -1.04745 -21.2378 70.5476 -58.0364 46.8876 27.1098 -18.372 135.04 21.8802 -16.0214 15.2192 28.184 10.7294 19.1592 -4.91207e-15 -9.54166e-15 -10 -3.54385e-15 -6.36111e-15 -10 3.18055e-15 6.36111e-15 3.18055e-15 19.9818 0.871897 2.3964 24 9.54166e-15 -2.88238e-15 20 6.36111e-15 -1.59028e-15 3.18055e-15 6.36111e-15 3.18055e-15 20 0 -4.77083e-15 24 3.18055e-15 1.19271e-15 20 0 -1.59028e-15 3.18055e-15 6.36111e-15 3.18055e-15 19.9748 -1.02565 -2.81938 24 6.36111e-15 -5.1684e-15 20 3.18055e-15 -3.18055e-15 3.18055e-15 6.36111e-15 3.18055e-15 19.7815 -3.00948 -8.30515 24 3.18055e-15 -3.18055e-15 20 1.27222e-14 -3.18055e-15 11.9408 -14.3435 -41.2493 4.71347 5.85689 -120.183 28.553 -26.747 -41.7823 -2.52967 14.6848 -20.2981 -28.184 10.7294 -19.1592 -3.22962e-15 0 10 1.36822e-15 -3.18055e-15 10 1.76556e-31 -3.18055e-15 3.18055e-15 -19.9818 0.871897 -2.3964 -24 9.54166e-15 -2.38542e-15 -20 9.54166e-15 3.18055e-15 1.76556e-31 -3.18055e-15 3.18055e-15 -20 -3.18055e-15 -3.18055e-15 -24 3.18055e-15 -1.98785e-15 -20 3.18055e-15 -0 1.76556e-31 -3.18055e-15 3.18055e-15 -19.9748 -1.02565 2.81938 -24 -3.18055e-15 -1.09332e-15 -20 -6.36111e-15 4.77083e-15 1.76556e-31 -3.18055e-15 3.18055e-15 -19.7815 -3.00948 8.30515 -24 -3.18055e-15 -1.59028e-15 -20 -9.54166e-15 1.59028e-15 
614.881 86.6363 412.285 21.3198 0.085181 -124.163 33.3806 -37.2786 47.2886 -2.95012 23.4905 -18.948 8.07892 8.3739 56.8802 32.6942 -20.084 13.2747 -21.913 50.0587 23.2385 -8.21686 -15.1568 43.9224 -7.25398 5.67779 -18.4193 -1.98473 0.716662 -4.83296 -3.23731 0.833573 -7.77251 -0.527656 -0.586503 2.73543 0.878958 -8.43331 44.3564 -8.01819 3.18809 25.3498 5.69281 -1.09797 -21.242 70.6128 -57.9539 46.7195 27.1465 -18.1956 134.511 22.0261 -15.5424 15.6227 28.184 10.7294 19.1592 -6.52688e-15 -9.54166e-15 -10 1.05399e-15 -3.18055e-15 -10 -1.11319e-14 3.18055e-15 3.18055e-15 19.9818 0.871897 2.3964 24 0 9.93923e-17 20 -3.18055e-15 -3.18055e-15 -1.11319e-14 3.18055e-15 3.18055e-15 20 3.18055e-15 7.95139e-15 24 -1.27222e-14 -1.39149e-15 20 -6.36111e-15 -0 -1.11319e-14 3.18055e-15 3.18055e-15 19.9748 -1.02565 -2.81938 24 3.18055e-15 2.78299e-15 20 -3.18055e-15 -0 -1.11319e-14 3.18055e-15 3.18055e-15 19.7815 -3.00948 -8.30515 24 9.54166e-15 -3.18055e-15 20 0 3.18055e-15 12.0075 -14.3426 -41.1633 4.70888 5.80585 -120.278 28.5249 -26.5988 -41.4998 -2.90509 14.6326 -20.1984 -28.184 10.7294 -19.1592 6.45924e-15 0 10 5.40525e-15 -3.18055e-15 10 1.59028e-15 6.36111e-15 -6.36111e-15 -19.9818 0.871897 -2.3964 -24 3.18055e-15 3.97569e-16 -20 3.18055e-15 3.18055e-15 1.59028e-15 6.36111e-15 -6.36111e-15 -20 0 -1.59028e-15 -24 9.54166e-15 1.98785e-15 -20 -3.18055e-15 -4.77083e-15 1.59028e-15 6.36111e-15 -6.36111e-15 -19.9748 -1.02565 2.81938 -24 -3.18055e-15 -4.22417e-16 -20 3.18055e-15 -0 1.59028e-15 6.36111e-15 -6.36111e-15 -19.7815 -3.00948 8.30515 -24 0 -4.37326e-15 -20 3.18055e-15 -6.36111e-15 
